<svg
            className="w-full h-auto"
            viewBox="0 0 400 300"
            fill="none"
            stroke="currentColor"
            strokeWidth="2"
            strokeLinecap="round"
            strokeLinejoin="round"
            xmlns="http://www.w3.org/2000/svg" 
            xmlns:xlink="http://www.w3.org/1999/xlink" 
            aria-hidden="true" 
            role="img" 
          >
            <path
              d="M200 120 C230 120 240 100 220 80 C220 60 260 60 260 80 C280 60 320 80 300 100 C320 110 310 130 290 130 L200 130 L200 120"
              fill="#EFE6FF"
              stroke="#B794F4"
            />
            <text x="220" y="110" fontSize="24" fill="#B794F4">?</text>
            <text x="250" y="95" fontSize="20" fill="#B794F4">?</text>
            <text x="280" y="105" fontSize="16" fill="#B794F4">?</text>
            <circle cx="200" cy="180" r="20" stroke="#B794F4" fill="#EFE6FF" /> 
            <line x1="200" y1="200" x2="200" y2="240" stroke="#B794F4" /> 
            <line x1="200" y1="210" x2="170" y2="230" stroke="#B794F4" />
            <line x1="200" y1="210" x2="230" y2="230" stroke="#B794F4" />
            <line x1="200" y1="240" x2="180" y2="270" stroke="#B794F4" />
            <line x1="200" y1="240" x2="220" y2="270" stroke="#B794F4" />
            <path d="M190 175 Q200 185 210 175" stroke="#B794F4" fill="none" />
          </svg>